<svg xmlns="http://www.w3.org/2000/svg" viewBox="0 0 1200 760" role="img" aria-labelledby="title"><title id="title">Vista previa genérica de un sistema de automatización</title><rect width="1200" height="760" rx="32" fill="#151021"/><rect x="40" y="40" width="1120" height="680" rx="24" fill="#f6f3ff"/><rect x="40" y="40" width="230" height="680" rx="24" fill="#24183d"/><circle cx="95" cy="96" r="22" fill="#b68cff"/><text x="132" y="104" fill="#fff" font-family="Arial" font-size="22" font-weight="700">FLOW</text><g fill="#aa9dbd" font-family="Arial" font-size="17"><text x="78" y="185">Resumen</text><text x="78" y="235">Procesos</text><text x="78" y="285">Reportes</text><text x="78" y="335">Equipo</text></g><text x="320" y="110" fill="#211a2e" font-family="Arial" font-size="32" font-weight="700">Panel de operaciones</text><text x="320" y="145" fill="#786e83" font-family="Arial" font-size="16">Todo lo importante en un solo lugar.</text><g><rect x="320" y="190" width="245" height="140" rx="18" fill="#e7dcff"/><rect x="590" y="190" width="245" height="140" rx="18" fill="#d4f6ff"/><rect x="860" y="190" width="245" height="140" rx="18" fill="#e9ffc1"/></g><g fill="#211a2e" font-family="Arial"><text x="345" y="235" font-size="15">TAREAS HOY</text><text x="345" y="295" font-size="42" font-weight="700">24</text><text x="615" y="235" font-size="15">AUTOMATIZADAS</text><text x="615" y="295" font-size="42" font-weight="700">86%</text><text x="885" y="235" font-size="15">TIEMPO AHORRADO</text><text x="885" y="295" font-size="42" font-weight="700">18h</text></g><rect x="320" y="380" width="785" height="275" rx="18" fill="#fff" stroke="#ddd5e7"/><path d="M365 590L460 530 550 555 650 450 750 495 845 410 1045 450" fill="none" stroke="#8253ef" stroke-width="10" stroke-linecap="round" stroke-linejoin="round"/></svg>
