<svg xmlns="http://www.w3.org/2000/svg" viewBox="0 0 1200 760" role="img" aria-labelledby="title"><title id="title">Vista previa genérica de una invitación digital</title><defs><linearGradient id="bg" x1="0" y1="0" x2="1" y2="1"><stop stop-color="#efe8df"/><stop offset="1" stop-color="#d9e2da"/></linearGradient></defs><rect width="1200" height="760" rx="32" fill="url(#bg)"/><circle cx="130" cy="110" r="180" fill="#b7c8bb" opacity=".7"/><circle cx="1100" cy="680" r="240" fill="#d9b9aa" opacity=".55"/><rect x="330" y="45" width="540" height="670" rx="28" fill="#fffdf9" stroke="#b7aea4" stroke-width="3"/><text x="600" y="135" text-anchor="middle" fill="#6e7d73" font-family="Arial" font-size="14" letter-spacing="5">TENEMOS EL GUSTO DE INVITARTE</text><text x="600" y="250" text-anchor="middle" fill="#343a36" font-family="Georgia" font-size="58" font-style="italic">Ana &amp; Daniel</text><path d="M470 300h260" stroke="#b7aea4"/><text x="600" y="370" text-anchor="middle" fill="#343a36" font-family="Arial" font-size="21" font-weight="700">18 · OCTUBRE · 2026</text><text x="600" y="420" text-anchor="middle" fill="#7e827f" font-family="Arial" font-size="16">Hacienda Los Olivos · 17:00 h</text><circle cx="600" cy="510" r="70" fill="#dbe6dc"/><path d="M600 465c-25 35-35 62 0 90 35-28 25-55 0-90z" fill="#718a78"/><rect x="470" y="615" width="260" height="54" rx="27" fill="#3f5146"/><text x="600" y="648" text-anchor="middle" fill="#fff" font-family="Arial" font-size="15" font-weight="700">CONFIRMAR ASISTENCIA</text><g fill="#7b8d80"><path d="M305 150c-70 5-120 45-150 118 74-10 124-52 150-118z"/><path d="M895 520c78 12 125 58 142 136-76-20-118-66-142-136z"/></g></svg>
