<svg xmlns="http://www.w3.org/2000/svg" viewBox="0 0 1200 760" role="img" aria-labelledby="title desc">
  <title id="title">Vista previa genérica de Lucha Club</title><desc id="desc">Mockup oscuro de una tienda digital de lucha libre.</desc>
  <defs><linearGradient id="bg" x1="0" y1="0" x2="1" y2="1"><stop stop-color="#090909"/><stop offset="1" stop-color="#2b080b"/></linearGradient><radialGradient id="glow"><stop stop-color="#d21f2b" stop-opacity=".8"/><stop offset="1" stop-color="#d21f2b" stop-opacity="0"/></radialGradient></defs>
  <rect width="1200" height="760" rx="32" fill="url(#bg)"/><circle cx="930" cy="230" r="330" fill="url(#glow)" opacity=".45"/>
  <rect x="42" y="38" width="1116" height="58" rx="15" fill="#171717" stroke="#383838"/><circle cx="70" cy="67" r="8" fill="#e3222e"/><circle cx="94" cy="67" r="8" fill="#d4a52c"/><circle cx="118" cy="67" r="8" fill="#6c6c6c"/><text x="160" y="75" fill="#fff" font-family="Arial" font-size="22" font-weight="700">LUCHA CLUB</text><text x="820" y="74" fill="#aaa" font-family="Arial" font-size="15">DROPS   CATÁLOGO   LUCHADORES</text>
  <text x="82" y="205" fill="#c79b37" font-family="Arial" font-size="17" font-weight="700" letter-spacing="3">TIENDA OFICIAL · QUERÉTARO</text><text x="78" y="330" fill="#fff" font-family="Arial" font-size="92" font-weight="800">Lucha Club</text><text x="82" y="380" fill="#c5c5c5" font-family="Arial" font-size="23">Máscaras, ropa, figuras y gear para fans.</text>
  <rect x="82" y="430" width="175" height="54" rx="8" fill="#d7192b"/><text x="116" y="464" fill="#fff" font-family="Arial" font-size="18" font-weight="700">VER CATÁLOGO</text>
  <g transform="translate(690 155)"><path d="M80 50c65-48 150-40 205 12l-26 248c-58 80-146 85-210 6L20 75z" fill="#151515" stroke="#d5a236" stroke-width="8"/><path d="M52 122l95 42 110-50-35 85 17 74-87-30-81 33 15-78z" fill="#b51925" stroke="#e3bd62" stroke-width="5"/><path d="M75 295c56 34 112 32 166-6-27 70-125 89-166 6z" fill="#d5a236"/></g>
  <rect x="42" y="630" width="1116" height="86" rx="18" fill="#121212" stroke="#333"/><text x="78" y="681" fill="#fff" font-family="Arial" font-size="21" font-weight="700">E-commerce · Catálogo · Pagos · Responsive</text><text x="940" y="682" fill="#d5a236" font-family="Arial" font-size="17">DEMO EN VIVO ↗</text>
</svg>
