<svg xmlns="http://www.w3.org/2000/svg" viewBox="0 0 1200 760" role="img" aria-labelledby="title"><title id="title">Vista previa genérica de un sistema POS</title><rect width="1200" height="760" rx="32" fill="#11181a"/><rect x="38" y="38" width="1124" height="684" rx="24" fill="#f4f2ed"/><rect x="38" y="38" width="1124" height="74" rx="24" fill="#1b2426"/><text x="82" y="84" fill="#fff" font-family="Arial" font-size="22" font-weight="700">PUNTO</text><circle cx="1090" cy="74" r="18" fill="#d8e0c3"/><rect x="75" y="150" width="680" height="520" rx="18" fill="#fff"/><text x="105" y="205" fill="#252c2d" font-family="Arial" font-size="28" font-weight="700">Productos</text><g font-family="Arial"><g transform="translate(105 245)"><rect width="180" height="155" rx="15" fill="#e7dfd1"/><circle cx="90" cy="62" r="38" fill="#c8a980"/><text x="18" y="130" fill="#292929" font-size="16">Producto 01</text></g><g transform="translate(315 245)"><rect width="180" height="155" rx="15" fill="#d9e6df"/><circle cx="90" cy="62" r="38" fill="#7fa594"/><text x="18" y="130" fill="#292929" font-size="16">Producto 02</text></g><g transform="translate(525 245)"><rect width="180" height="155" rx="15" fill="#eee0d4"/><circle cx="90" cy="62" r="38" fill="#d18b67"/><text x="18" y="130" fill="#292929" font-size="16">Producto 03</text></g><g transform="translate(105 430)"><rect width="180" height="155" rx="15" fill="#e3e5ef"/><circle cx="90" cy="62" r="38" fill="#8e96b5"/><text x="18" y="130" fill="#292929" font-size="16">Producto 04</text></g></g><rect x="790" y="150" width="330" height="520" rx="18" fill="#1f292b"/><text x="825" y="205" fill="#fff" font-family="Arial" font-size="25" font-weight="700">Venta actual</text><g fill="#afbab8" font-family="Arial" font-size="15"><text x="825" y="270">Producto 01</text><text x="1045" y="270">$120</text><text x="825" y="315">Producto 03</text><text x="1045" y="315">$180</text></g><line x1="825" y1="360" x2="1085" y2="360" stroke="#546164"/><text x="825" y="415" fill="#fff" font-family="Arial" font-size="18">Total</text><text x="1000" y="415" fill="#fff" font-family="Arial" font-size="32" font-weight="700">$300</text><rect x="825" y="545" width="260" height="64" rx="12" fill="#d7ee65"/><text x="900" y="585" fill="#182022" font-family="Arial" font-size="19" font-weight="700">COBRAR</text></svg>
