<svg xmlns="http://www.w3.org/2000/svg" viewBox="0 0 1200 760" role="img" aria-labelledby="title desc">
  <title id="title">Vista previa de una tienda digital</title>
  <desc id="desc">Interfaz genérica de comercio electrónico en tonos grafito, verde oliva y coral.</desc>
  <defs>
    <linearGradient id="page" x1="0" y1="0" x2="1" y2="1"><stop stop-color="#12191c"/><stop offset="1" stop-color="#24333a"/></linearGradient>
    <linearGradient id="glow" x1="0" y1="0" x2="1" y2="1"><stop stop-color="#b9ca7a"/><stop offset="1" stop-color="#8fa46a"/></linearGradient>
    <filter id="shadow" x="-20%" y="-20%" width="140%" height="150%"><feDropShadow dx="0" dy="22" stdDeviation="24" flood-color="#07090a" flood-opacity=".42"/></filter>
  </defs>

  <rect width="1200" height="760" rx="32" fill="#0a0d0e"/>
  <rect x="34" y="34" width="1132" height="692" rx="26" fill="url(#page)" stroke="#3c4a4e" stroke-width="3" filter="url(#shadow)"/>

  <rect x="34" y="34" width="1132" height="78" rx="26" fill="#171d1f"/>
  <path d="M34 88h1132v24H34z" fill="#171d1f"/>
  <circle cx="78" cy="73" r="22" fill="#b9ca7a"/>
  <path d="M68 69h20l-2 18H70zm5-5a5 5 0 0110 0" fill="none" stroke="#172023" stroke-width="4" stroke-linecap="round" stroke-linejoin="round"/>
  <text x="112" y="69" fill="#f7f5f0" font-family="Arial, sans-serif" font-size="19" font-weight="700">TIENDA</text>
  <text x="112" y="88" fill="#899398" font-family="Arial, sans-serif" font-size="11" letter-spacing="1.5">ECOMMERCE DEMO</text>
  <g fill="#b8bec0" font-family="Arial, sans-serif" font-size="14" font-weight="600"><text x="550" y="79">Destacados</text><text x="656" y="79">Catálogo</text><text x="744" y="79">Colecciones</text><text x="852" y="79">Nosotros</text></g>
  <rect x="1010" y="54" width="112" height="40" rx="20" fill="none" stroke="#687579"/><text x="1035" y="80" fill="#f4f2ed" font-family="Arial, sans-serif" font-size="13" font-weight="700">Carrito · 0</text>

  <text x="82" y="185" fill="#b9ca7a" font-family="Arial, sans-serif" font-size="13" font-weight="700" letter-spacing="2.5">UNA EXPERIENCIA DE COMPRA COMPLETA</text>
  <text x="78" y="304" fill="#f8f5ef" font-family="Arial, sans-serif" font-size="80" font-weight="800" letter-spacing="-4">Todo lo que</text>
  <text x="78" y="384" fill="#f8f5ef" font-family="Arial, sans-serif" font-size="80" font-weight="800" letter-spacing="-4">buscas.</text>
  <text x="82" y="438" fill="#b8c0c2" font-family="Arial, sans-serif" font-size="19">Una tienda flexible para presentar, organizar</text>
  <text x="82" y="468" fill="#b8c0c2" font-family="Arial, sans-serif" font-size="19">y vender productos de cualquier categoría.</text>
  <rect x="82" y="520" width="150" height="50" rx="25" fill="#b9ca7a"/><text x="117" y="551" fill="#172023" font-family="Arial, sans-serif" font-size="14" font-weight="800">VER CATÁLOGO</text>
  <rect x="246" y="520" width="142" height="50" rx="25" fill="none" stroke="#6c797d"/><text x="278" y="551" fill="#edf0ed" font-family="Arial, sans-serif" font-size="14" font-weight="700">COLECCIONES</text>

  <g transform="translate(610 158)">
    <rect x="0" y="0" width="228" height="268" rx="22" fill="#e9e4db" transform="rotate(-5 114 134)"/>
    <rect x="258" y="48" width="228" height="268" rx="22" fill="#d47c6b" transform="rotate(5 372 182)"/>
    <circle cx="114" cy="94" r="62" fill="#8da6a7"/>
    <path d="M76 91h76l-8 68H84zm17-18a21 21 0 0142 0" fill="none" stroke="#223034" stroke-width="9" stroke-linecap="round" stroke-linejoin="round"/>
    <circle cx="372" cy="142" r="62" fill="#b9ca7a"/>
    <path d="M342 139h60l-6 55h-48zm13-15a17 17 0 0134 0" fill="none" stroke="#27312c" stroke-width="8" stroke-linecap="round" stroke-linejoin="round"/>
    <rect x="84" y="188" width="146" height="14" rx="7" fill="#c5beb5"/>
    <rect x="84" y="216" width="96" height="11" rx="6" fill="#d4cec5"/>
    <rect x="340" y="237" width="122" height="14" rx="7" fill="#a85f53"/>
    <rect x="340" y="265" width="82" height="11" rx="6" fill="#b86b5d"/>
  </g>

  <rect x="580" y="566" width="540" height="105" rx="20" fill="#182225" stroke="#354448"/>
  <g font-family="Arial, sans-serif"><text x="614" y="604" fill="#829095" font-size="11" letter-spacing="1.5">INCLUYE</text><text x="614" y="638" fill="#f5f2ed" font-size="17" font-weight="700">Catálogo · Categorías · Carrito · Pagos</text><text x="1008" y="626" fill="#b9ca7a" font-size="15" font-weight="700">DEMO ↗</text></g>
</svg>
